<?xml version="1.0" standalone="no"?>
<!DOCTYPE svg PUBLIC "-//W3C//DTD SVG 20010904//EN"
 "http://www.w3.org/TR/2001/REC-SVG-20010904/DTD/svg10.dtd">
<svg version="1.0" xmlns="http://www.w3.org/2000/svg"
 width="246.000000pt" height="246.000000pt" viewBox="0 0 246.000000 246.000000"
 preserveAspectRatio="xMidYMid meet">
<metadata>
Created by potrace 1.14, written by Peter Selinger 2001-2017
</metadata>
<g transform="translate(0.000000,246.000000) scale(0.100000,-0.100000)"
fill="#000000" stroke="none">
<path d="M1076 2424 c-136 -18 -303 -67 -416 -121 -168 -81 -252 -186 -317
-398 l-28 -90 -1 -385 c-1 -212 -2 -392 -3 -400 -1 -9 -12 -1 -30 20 l-29 35
-7 -27 c-8 -32 0 -62 15 -53 16 10 38 -48 44 -120 3 -38 12 -98 20 -132 11
-51 11 -63 1 -63 -8 0 -16 6 -18 13 -4 9 -6 9 -6 0 -1 -7 10 -20 23 -28 15
-10 33 -42 51 -93 53 -149 101 -230 199 -328 105 -104 199 -159 334 -194 162
-42 463 -42 627 1 114 29 241 98 325 176 106 98 168 196 221 348 21 60 35 84
56 97 26 17 27 18 6 18 -20 0 -22 4 -16 33 3 17 12 55 20 82 8 28 16 70 18 95
4 71 14 98 41 104 25 7 32 37 15 65 -11 17 -28 7 -52 -33 -10 -17 -20 -26 -20
-21 -1 6 -3 183 -3 395 -1 372 -2 387 -24 459 -44 141 -84 213 -168 301 -141
148 -259 213 -439 245 -106 18 -302 18 -439 -1z m660 -338 c29 -10 61 -26 71
-35 11 -10 29 -24 42 -30 36 -20 110 -129 128 -190 9 -31 16 -59 15 -63 -1 -5
2 -8 7 -8 4 0 6 -31 3 -70 -3 -51 -1 -74 9 -87 9 -11 10 -14 2 -9 -10 5 -13
-3 -13 -33 0 -22 -5 -41 -12 -44 -10 -3 -10 -11 -1 -37 9 -25 10 -36 2 -41 -9
-5 -9 -15 0 -39 6 -18 11 -89 11 -156 0 -85 4 -124 11 -124 8 0 10 -41 7 -137
-5 -176 -35 -286 -83 -310 -51 -27 -130 -20 -210 19 -62 29 -79 33 -155 33
-47 0 -130 -4 -185 -8 l-99 -8 27 28 c38 41 51 84 37 127 -6 19 -18 40 -27 48
-15 12 -16 10 -10 -20 15 -73 -22 -112 -103 -112 -73 0 -109 31 -110 93 0 52
-22 44 -34 -12 -9 -43 0 -74 39 -126 15 -21 14 -21 -163 -20 -174 0 -178 0
-229 -27 -28 -15 -71 -32 -95 -37 -48 -11 -116 0 -129 21 -5 7 -9 9 -9 3 -2
-30 -31 69 -46 152 -15 89 -15 112 0 302 16 210 23 452 13 468 -3 5 1 66 9
135 17 144 36 189 111 262 52 51 113 84 182 100 32 7 201 11 493 11 400 -1
448 -2 494 -19z m281 -418 c-3 -7 -5 -2 -5 12 0 14 2 19 5 13 2 -7 2 -19 0
-25z m-437 -1027 c0 -5 -9 -12 -19 -16 -29 -9 -165 -26 -261 -32 -142 -9 -488
22 -468 43 3 2 78 -4 169 -13 142 -14 186 -15 329 -4 91 7 181 16 200 21 48
11 50 11 50 1z m80 -85 c-1 -96 -84 -196 -188 -227 -39 -11 -48 -11 -78 6 -19
10 -34 22 -34 26 0 22 -63 39 -144 39 -98 0 -119 -6 -163 -49 -18 -17 -43 -31
-55 -31 -113 0 -228 114 -228 225 1 28 7 58 15 69 16 21 16 21 73 -31 7 -7 19
-13 26 -13 7 0 21 -9 31 -20 10 -11 22 -17 27 -13 6 3 13 2 17 -3 13 -20 60
-32 103 -27 28 3 48 1 52 -6 4 -6 26 -10 49 -9 l42 1 -45 7 c-39 6 -33 7 38 8
52 1 82 -2 82 -9 0 -5 5 -7 12 -3 13 8 87 24 126 27 12 1 22 5 22 8 0 4 16 10
36 14 41 7 72 26 119 68 l30 28 18 -22 c10 -13 17 -38 17 -63z"/>
<path d="M1962 1820 c0 -14 2 -19 5 -12 2 6 2 18 0 25 -3 6 -5 1 -5 -13z"/>
<path d="M1520 1652 c-36 -9 -71 -21 -78 -25 -15 -10 -16 -48 0 -83 12 -25 15
-26 68 -21 30 3 94 11 142 18 78 11 91 11 134 -6 27 -10 60 -29 74 -42 54 -51
79 4 32 72 -15 22 -46 52 -68 68 -37 26 -50 29 -140 32 -71 3 -117 -1 -164
-13z"/>
<path d="M648 1646 c-61 -22 -86 -43 -118 -99 -35 -60 -34 -58 -17 -81 12 -17
16 -15 56 18 70 58 144 69 281 40 89 -18 114 -14 129 24 21 50 6 78 -47 92
-75 19 -241 23 -284 6z"/>
<path d="M450 1615 c0 -8 5 -15 10 -15 6 0 10 7 10 15 0 8 -4 15 -10 15 -5 0
-10 -7 -10 -15z"/>
<path d="M1655 1322 c-57 -5 -118 -23 -143 -42 -13 -11 -29 -17 -35 -13 -5 3
-7 2 -4 -4 4 -5 -5 -20 -18 -31 -14 -12 -25 -27 -25 -33 0 -5 -5 -7 -12 -3 -7
4 -8 3 -4 -4 4 -6 2 -21 -4 -32 -9 -16 -8 -18 5 -14 8 4 15 9 15 13 0 9 62 83
66 78 2 -2 -1 -19 -6 -37 -7 -23 -6 -47 1 -74 17 -63 30 -73 102 -74 75 -1
121 21 142 71 8 17 14 24 15 15 0 -9 3 -24 7 -34 4 -10 2 -15 -3 -11 -5 3 -10
-3 -10 -14 0 -30 16 -22 32 16 20 48 18 104 -7 149 -11 21 -19 40 -17 42 11
10 112 -62 131 -94 20 -34 22 -35 25 -14 2 13 -4 34 -12 48 -9 13 -13 24 -9
24 8 0 -1 6 -65 42 -33 19 -120 35 -167 30z m-50 -81 c9 -28 -5 -52 -28 -49
-29 4 -44 32 -28 52 18 22 48 20 56 -3z"/>
<path d="M677 1309 c-83 -17 -157 -79 -157 -131 0 -36 4 -35 30 7 22 35 84 85
106 85 8 0 5 -14 -8 -37 -14 -28 -18 -52 -15 -91 5 -76 26 -94 109 -94 73 -1
104 14 138 65 12 18 19 24 16 15 -3 -10 -1 -18 5 -18 6 0 3 -10 -5 -22 -18
-26 -20 -38 -6 -38 31 0 53 127 30 171 -7 11 -7 19 -1 19 13 0 81 -81 81 -97
0 -7 5 -13 11 -13 6 0 8 9 3 22 -6 20 -5 21 10 9 35 -30 13 5 -26 41 -24 21
-43 44 -43 51 0 7 -8 11 -17 9 -9 -1 -19 2 -23 8 -21 34 -155 56 -238 39z m83
-90 c0 -4 -7 -15 -16 -23 -19 -20 -54 -5 -54 24 0 29 31 42 52 23 10 -9 18
-20 18 -24z"/>
<path d="M1405 510 c3 -5 8 -10 11 -10 2 0 4 5 4 10 0 6 -5 10 -11 10 -5 0 -7
-4 -4 -10z"/>
</g>
</svg>
